<svg xmlns="http://www.w3.org/2000/svg" viewBox="0 0 220 53" fill="none"><path d="M76.44 16.15C75.377 16.1469 74.3473 16.5211 73.5343 17.2059C72.7212 17.8908 72.1776 18.8419 72 19.89L64.3 0H17.76L10 19.89C9.85333 19.0474 9.46906 18.2642 8.8924 17.6326C8.31575 17.001 7.57069 16.5472 6.74489 16.3247C5.9191 16.1021 5.04692 16.1201 4.23096 16.3764C3.41501 16.6327 2.68923 17.1167 2.13902 17.7715C1.58881 18.4262 1.23705 19.2245 1.12513 20.0724C1.01321 20.9203 1.14579 21.7826 1.50726 22.5577C1.86874 23.3328 2.44407 23.9886 3.16558 24.4478C3.88708 24.907 4.72474 25.1507 5.58 25.15V48L16.25 40.26H16.02C14.7424 40.2617 13.4976 39.8555 12.4668 39.1006C11.4361 38.3457 10.6732 37.2814 10.2893 36.0628C9.90543 34.8442 9.92055 33.5349 10.3325 32.3255C10.7444 31.1161 11.5316 30.0698 12.5795 29.3389C13.6274 28.6079 14.8813 28.2306 16.1585 28.2618C17.4358 28.293 18.6697 28.7311 19.6807 29.5123C20.6917 30.2935 21.4269 31.377 21.7793 32.605C22.1317 33.8331 22.0829 35.1416 21.64 36.34L21.75 36.26L54 48.57L76.46 35.57V25.15C77.6535 25.15 78.7981 24.6759 79.642 23.832C80.4859 22.9881 80.96 21.8435 80.96 20.65C80.96 19.4565 80.4859 18.3119 79.642 17.468C78.7981 16.6241 77.6535 16.15 76.46 16.15H76.44ZM43.44 20.65H14L20.5 4H61.56L68 20.65H64.45C64.45 20.59 64.45 20.53 64.45 20.47C64.45 19.0911 64.1784 17.7257 63.6507 16.4518C63.1231 15.1779 62.3496 14.0204 61.3746 13.0454C60.3996 12.0704 59.2421 11.2969 57.9682 10.7693C56.6943 10.2416 55.3289 9.97 53.95 9.97C52.5711 9.97 51.2057 10.2416 49.9318 10.7693C48.6579 11.2969 47.5004 12.0704 46.5254 13.0454C45.5504 14.0204 44.7769 15.1779 44.2493 16.4518C43.7216 17.7257 43.45 19.0911 43.45 20.47C43.46 20.53 43.47 20.59 43.47 20.65H43.44ZM46.94 20.65C46.94 20.59 46.94 20.53 46.94 20.47C46.94 18.6135 47.6775 16.833 48.9903 15.5203C50.303 14.2075 52.0835 13.47 53.94 13.47C55.7965 13.47 57.577 14.2075 58.8898 15.5203C60.2025 16.833 60.94 18.6135 60.94 20.47C60.94 20.53 60.94 20.59 60.94 20.65H46.94ZM66 40.32C64.8133 40.32 63.6533 39.9681 62.6666 39.3088C61.6799 38.6495 60.9109 37.7125 60.4567 36.6161C60.0026 35.5197 59.8838 34.3133 60.1153 33.1495C60.3468 31.9856 60.9182 30.9165 61.7574 30.0774C62.5965 29.2382 63.6656 28.6668 64.8295 28.4353C65.9934 28.2038 67.1997 28.3226 68.2961 28.7767C69.3925 29.2308 70.3295 29.9999 70.9888 30.9866C71.6481 31.9733 72 33.1333 72 34.32C72 35.9113 71.3679 37.4374 70.2426 38.5626C69.1174 39.6879 67.5913 40.32 66 40.32V40.32Z" fill="#262C2D"/><path d="M88.42 28.34L84.68 37.56L83.19 35.07L53.96 52.28L21.73 39.51L0 52.28L21.73 32.37L53.96 45.12L79.97 29.71L78.52 27.27L88.42 28.34Z" fill="#28A466"/><path fill-rule="evenodd" clip-rule="evenodd" d="M192.79 15.73C193.358 15.7083 193.906 15.5199 194.368 15.1881C194.829 14.8564 195.182 14.3961 195.383 13.8648C195.584 13.3334 195.624 12.7546 195.498 12.2007C195.372 11.6468 195.085 11.1423 194.674 10.7503C194.263 10.3583 193.745 10.0962 193.186 9.99674C192.627 9.89726 192.05 9.96483 191.529 10.191C191.008 10.4172 190.565 10.7919 190.256 11.2684C189.947 11.7449 189.785 12.3019 189.79 12.87C189.795 13.256 189.877 13.6371 190.032 13.991C190.186 14.3449 190.409 14.6643 190.689 14.9307C190.968 15.1971 191.298 15.405 191.659 15.5423C192.02 15.6795 192.404 15.7433 192.79 15.73ZM101.36 10.9V40.57H106.46V28.5H119V23.67H106.46V15.73H121.17V10.9H101.36ZM123.32 10.9V40.57H128.42V10.9H123.32ZM219.65 29.64C219.65 36.23 214.95 41.02 208.54 41.02C202.13 41.02 197.47 36.23 197.47 29.64C197.47 23.05 202.17 18.31 208.54 18.31C214.91 18.31 219.65 23.090 219.65 29.64ZM214.51 29.64C214.51 25.2 211.7 22.92 208.51 22.92C205.32 22.92 202.51 25.2 202.51 29.64C202.51 34.08 205.36 36.45 208.51 36.45C211.66 36.45 214.51 34.12 214.51 29.64ZM190.26 18.84H195.31V40.57H190.26V18.84ZM153.59 29.56C153.59 22.79 158.6 18.31 164 18.31C170.56 18.31 174.43 22.65 174.43 29.4C174.445 29.953 174.401 30.5061 174.3 31.05H158.62C158.659 32.561 159.296 33.9948 160.391 35.037C161.486 36.0792 162.949 36.6449 164.46 36.61C165.379 36.6754 166.298 36.4939 167.123 36.0842C167.947 35.6745 168.647 35.0515 169.15 34.28H174.15C173.51 36.3087 172.216 38.0682 170.47 39.2839C168.724 40.4996 166.625 41.1031 164.5 41C158.7 41 153.56 36.8 153.59 29.56ZM160.475 23.9177C159.513 24.7977 158.921 26.0103 158.82 27.31H169.27C169.18 24.81 167.51 22.57 164 22.57C162.696 22.5559 161.436 23.0376 160.475 23.9177ZM141 18.31C135.6 18.31 130.59 22.79 130.59 29.56C130.59 36.81 135.73 41.02 141.53 41.02C143.655 41.1231 145.754 40.5196 147.5 39.3039C149.246 38.0882 150.54 36.3287 151.18 34.3H146.18C145.677 35.0715 144.977 35.6945 144.153 36.1042C143.328 36.5139 142.409 36.6954 141.49 36.63C139.979 36.6649 138.516 36.0992 137.421 35.057C136.326 34.0148 135.689 32.581 135.65 31.07H151.29C151.391 30.5261 151.435 29.973 151.42 29.42C151.42 22.65 147.56 18.31 141 18.31ZM135.82 27.31C135.921 26.0103 136.513 24.7977 137.475 23.9177C138.436 23.0376 139.696 22.5559 141 22.57C144.51 22.57 146.18 24.81 146.27 27.31H135.82ZM186.5 36.31C187.04 36.2961 187.578 36.2426 188.11 36.15L188.14 40.41C187.171 40.7206 186.157 40.8626 185.14 40.83C181.19 40.83 178.73 38.46 178.73 34.46V23.14H175.5V18.84H178.72V11.84H183.78V18.84H188.11V23.14H183.78V33.63C183.78 35.52 184.61 36.31 186.5 36.31Z" fill="#262C2D"/></svg>
